<?xml version="1.0" encoding="UTF-8"?> <svg xmlns="http://www.w3.org/2000/svg" width="240" height="49" viewBox="0 0 240 49" fill="none"> <rect width="240" height="49" rx="5" fill="#C98D4E"></rect> <path d="M95.0375 32V20.966H90.7175V19.4H101.14V20.966H96.8195V32H95.0375ZM104.738 24.836H111.218V26.366H104.738V24.836ZM104.9 30.434H112.244V32H103.1V19.4H111.992V20.966H104.9V30.434ZM115.159 32V19.4H116.959V30.434H123.781V32H115.159ZM127.484 24.836H133.964V26.366H127.484V24.836ZM127.646 30.434H134.99V32H125.846V19.4H134.738V20.966H127.646V30.434ZM143.575 32.144C142.603 32.144 141.709 31.988 140.893 31.676C140.077 31.352 139.369 30.902 138.769 30.326C138.169 29.738 137.701 29.054 137.365 28.274C137.029 27.494 136.861 26.636 136.861 25.7C136.861 24.764 137.029 23.906 137.365 23.126C137.701 22.346 138.169 21.668 138.769 21.092C139.381 20.504 140.095 20.054 140.911 19.742C141.727 19.418 142.627 19.256 143.611 19.256C144.607 19.256 145.519 19.418 146.347 19.742C147.175 20.066 147.877 20.552 148.453 21.2L147.337 22.316C146.821 21.812 146.257 21.446 145.645 21.218C145.045 20.978 144.391 20.858 143.683 20.858C142.963 20.858 142.291 20.978 141.667 21.218C141.055 21.458 140.521 21.794 140.065 22.226C139.621 22.658 139.273 23.174 139.021 23.774C138.781 24.362 138.661 25.004 138.661 25.7C138.661 26.384 138.781 27.026 139.021 27.626C139.273 28.214 139.621 28.73 140.065 29.174C140.521 29.606 141.055 29.942 141.667 30.182C142.279 30.422 142.945 30.542 143.665 30.542C144.337 30.542 144.979 30.44 145.591 30.236C146.215 30.02 146.791 29.666 147.319 29.174L148.345 30.542C147.721 31.07 146.989 31.472 146.149 31.748C145.321 32.012 144.463 32.144 143.575 32.144ZM146.617 30.308V25.628H148.345V30.542L146.617 30.308ZM151.791 32V19.4H156.705C157.809 19.4 158.751 19.574 159.531 19.922C160.311 20.27 160.911 20.774 161.331 21.434C161.751 22.094 161.961 22.88 161.961 23.792C161.961 24.704 161.751 25.49 161.331 26.15C160.911 26.798 160.311 27.296 159.531 27.644C158.751 27.992 157.809 28.166 156.705 28.166H152.781L153.591 27.338V32H151.791ZM160.215 32L157.011 27.428H158.937L162.177 32H160.215ZM153.591 27.518L152.781 26.636H156.651C157.803 26.636 158.673 26.39 159.261 25.898C159.861 25.394 160.161 24.692 160.161 23.792C160.161 22.892 159.861 22.196 159.261 21.704C158.673 21.212 157.803 20.966 156.651 20.966H152.781L153.591 20.066V27.518ZM162.961 32L168.667 19.4H170.449L176.173 32H174.283L169.189 20.408H169.909L164.815 32H162.961ZM165.391 28.85L165.877 27.41H172.969L173.491 28.85H165.391ZM178.053 32V19.4H179.529L185.181 28.922H184.389L189.969 19.4H191.445L191.463 32H189.735L189.717 22.118H190.131L185.163 30.47H184.335L179.331 22.118H179.781V32H178.053Z" fill="black"></path> <path d="M52.2872 13.4865C52.0003 13.2468 51.6528 13.0882 51.2818 13.0276C50.9107 12.967 50.53 13.0066 50.18 13.1424L26.3154 22.3842C25.8968 22.5414 25.5422 22.83 25.3063 23.2054C25.0704 23.5809 24.9661 24.0224 25.0097 24.462C25.0485 24.9014 25.2308 25.3166 25.5291 25.6452C25.8274 25.9739 26.2258 26.1983 26.6644 26.2848L32.7275 27.4703V34.9403C32.7273 35.3444 32.8488 35.7394 33.0767 36.0753C33.3046 36.4112 33.6285 36.6728 34.0074 36.8269C34.2581 36.9264 34.5257 36.9783 34.796 36.9798C35.0676 36.9808 35.3368 36.9283 35.5876 36.8254C35.8384 36.7225 36.0659 36.5713 36.2568 36.3807L39.618 33.0792L44.6986 37.4897C45.0737 37.8159 45.5559 37.9971 46.056 37.9996C46.2759 38.0041 46.4949 37.9695 46.7024 37.8976C47.0436 37.7912 47.3506 37.5988 47.5932 37.3395C47.8358 37.0801 48.0056 36.7628 48.0857 36.419L52.9465 15.4879C53.0315 15.1267 53.015 14.7495 52.8988 14.3969C52.7826 14.0443 52.5712 13.7295 52.2872 13.4865V13.4865ZM33.5161 25.5455L27.0781 24.2835L45.1252 17.2852L33.5161 25.5455ZM34.796 34.9403V28.898L38.0538 31.7279L34.796 34.9403ZM46.0689 35.96L35.4165 26.7182L50.7617 15.7938L46.0689 35.96Z" fill="black"></path> </svg> 