<?xml version="1.0" encoding="UTF-8"?> <svg xmlns="http://www.w3.org/2000/svg" width="240" height="49" viewBox="0 0 240 49" fill="none"> <rect width="240" height="49" rx="5" fill="#C98D4E"></rect> <path d="M52.8 10H25.2C24.5362 10 24 10.5362 24 11.2V38.8C24 39.4638 24.5362 40 25.2 40H52.8C53.4638 40 54 39.4638 54 38.8V11.2C54 10.5362 53.4638 10 52.8 10ZM51.6 37.6H44.6963V28.3825H48.5963L49.1813 23.8563H44.6963V20.965C44.6963 19.6525 45.06 18.76 46.9388 18.76H49.335V14.71C48.9188 14.6538 47.4975 14.53 45.84 14.53C42.3825 14.53 40.0163 16.6413 40.0163 20.515V23.8525H36.1088V28.3787H40.02V37.6H26.4V12.4H51.6V37.6Z" fill="black"></path> <path d="M89.6526 24.358H96.1506V25.906H89.6526V24.358ZM89.8326 31H88.0326V18.4H96.9246V19.966H89.8326V31ZM96.9703 31L102.676 18.4H104.458L110.182 31H108.292L103.198 19.408H103.918L98.8243 31H96.9703ZM99.4003 27.85L99.8863 26.41H106.978L107.5 27.85H99.4003ZM117.52 31.144C116.56 31.144 115.672 30.988 114.856 30.676C114.052 30.352 113.35 29.902 112.75 29.326C112.162 28.738 111.7 28.054 111.364 27.274C111.028 26.494 110.86 25.636 110.86 24.7C110.86 23.764 111.028 22.906 111.364 22.126C111.7 21.346 112.168 20.668 112.768 20.092C113.368 19.504 114.07 19.054 114.874 18.742C115.69 18.418 116.578 18.256 117.538 18.256C118.51 18.256 119.404 18.424 120.22 18.76C121.048 19.084 121.75 19.57 122.326 20.218L121.156 21.352C120.676 20.848 120.136 20.476 119.536 20.236C118.936 19.984 118.294 19.858 117.61 19.858C116.902 19.858 116.242 19.978 115.63 20.218C115.03 20.458 114.508 20.794 114.064 21.226C113.62 21.658 113.272 22.174 113.02 22.774C112.78 23.362 112.66 24.004 112.66 24.7C112.66 25.396 112.78 26.044 113.02 26.644C113.272 27.232 113.62 27.742 114.064 28.174C114.508 28.606 115.03 28.942 115.63 29.182C116.242 29.422 116.902 29.542 117.61 29.542C118.294 29.542 118.936 29.422 119.536 29.182C120.136 28.93 120.676 28.546 121.156 28.03L122.326 29.164C121.75 29.812 121.048 30.304 120.22 30.64C119.404 30.976 118.504 31.144 117.52 31.144ZM126.532 23.836H133.012V25.366H126.532V23.836ZM126.694 29.434H134.038V31H124.894V18.4H133.786V19.966H126.694V29.434ZM136.953 31V18.4H142.605C144.057 18.4 145.173 18.694 145.953 19.282C146.733 19.858 147.123 20.65 147.123 21.658C147.123 22.342 146.967 22.918 146.655 23.386C146.355 23.854 145.947 24.214 145.431 24.466C144.915 24.718 144.357 24.844 143.757 24.844L144.081 24.304C144.801 24.304 145.437 24.43 145.989 24.682C146.541 24.934 146.979 25.306 147.303 25.798C147.627 26.278 147.789 26.878 147.789 27.598C147.789 28.678 147.381 29.518 146.565 30.118C145.761 30.706 144.561 31 142.965 31H136.953ZM138.753 29.542H142.893C143.889 29.542 144.651 29.374 145.179 29.038C145.707 28.702 145.971 28.174 145.971 27.454C145.971 26.722 145.707 26.188 145.179 25.852C144.651 25.516 143.889 25.348 142.893 25.348H138.591V23.89H142.443C143.355 23.89 144.063 23.722 144.566 23.386C145.071 23.05 145.323 22.546 145.323 21.874C145.323 21.202 145.071 20.698 144.566 20.362C144.063 20.026 143.355 19.858 142.443 19.858H138.753V29.542ZM156.264 31.144C155.304 31.144 154.41 30.982 153.582 30.658C152.766 30.334 152.058 29.884 151.458 29.308C150.858 28.72 150.39 28.036 150.054 27.256C149.718 26.476 149.55 25.624 149.55 24.7C149.55 23.776 149.718 22.924 150.054 22.144C150.39 21.364 150.858 20.686 151.458 20.11C152.058 19.522 152.766 19.066 153.582 18.742C154.398 18.418 155.292 18.256 156.264 18.256C157.224 18.256 158.106 18.418 158.91 18.742C159.726 19.054 160.434 19.504 161.034 20.092C161.646 20.668 162.114 21.346 162.438 22.126C162.774 22.906 162.942 23.764 162.942 24.7C162.942 25.636 162.774 26.494 162.438 27.274C162.114 28.054 161.646 28.738 161.034 29.326C160.434 29.902 159.726 30.352 158.91 30.676C158.106 30.988 157.224 31.144 156.264 31.144ZM156.264 29.542C156.96 29.542 157.602 29.422 158.19 29.182C158.79 28.942 159.306 28.606 159.738 28.174C160.182 27.73 160.524 27.214 160.764 26.626C161.016 26.038 161.142 25.396 161.142 24.7C161.142 24.004 161.016 23.362 160.764 22.774C160.524 22.186 160.182 21.676 159.738 21.244C159.306 20.8 158.79 20.458 158.19 20.218C157.602 19.978 156.96 19.858 156.264 19.858C155.556 19.858 154.902 19.978 154.302 20.218C153.714 20.458 153.198 20.8 152.754 21.244C152.31 21.676 151.962 22.186 151.71 22.774C151.47 23.362 151.35 24.004 151.35 24.7C151.35 25.396 151.47 26.038 151.71 26.626C151.962 27.214 152.31 27.73 152.754 28.174C153.198 28.606 153.714 28.942 154.302 29.182C154.902 29.422 155.556 29.542 156.264 29.542ZM171.381 31.144C170.421 31.144 169.527 30.982 168.699 30.658C167.883 30.334 167.175 29.884 166.575 29.308C165.975 28.72 165.507 28.036 165.171 27.256C164.835 26.476 164.667 25.624 164.667 24.7C164.667 23.776 164.835 22.924 165.171 22.144C165.507 21.364 165.975 20.686 166.575 20.11C167.175 19.522 167.883 19.066 168.699 18.742C169.515 18.418 170.409 18.256 171.381 18.256C172.341 18.256 173.223 18.418 174.027 18.742C174.843 19.054 175.551 19.504 176.151 20.092C176.763 20.668 177.231 21.346 177.555 22.126C177.891 22.906 178.059 23.764 178.059 24.7C178.059 25.636 177.891 26.494 177.555 27.274C177.231 28.054 176.763 28.738 176.151 29.326C175.551 29.902 174.843 30.352 174.027 30.676C173.223 30.988 172.341 31.144 171.381 31.144ZM171.381 29.542C172.077 29.542 172.719 29.422 173.307 29.182C173.907 28.942 174.423 28.606 174.855 28.174C175.299 27.73 175.641 27.214 175.881 26.626C176.133 26.038 176.259 25.396 176.259 24.7C176.259 24.004 176.133 23.362 175.881 22.774C175.641 22.186 175.299 21.676 174.855 21.244C174.423 20.8 173.907 20.458 173.307 20.218C172.719 19.978 172.077 19.858 171.381 19.858C170.673 19.858 170.019 19.978 169.419 20.218C168.831 20.458 168.315 20.8 167.871 21.244C167.427 21.676 167.079 22.186 166.827 22.774C166.587 23.362 166.467 24.004 166.467 24.7C166.467 25.396 166.587 26.038 166.827 26.626C167.079 27.214 167.427 27.73 167.871 28.174C168.315 28.606 168.831 28.942 169.419 29.182C170.019 29.422 170.673 29.542 171.381 29.542ZM182.394 27.958L182.304 25.762L189.45 18.4H191.502L185.976 24.232L184.968 25.348L182.394 27.958ZM180.81 31V18.4H182.61V31H180.81ZM189.738 31L184.572 24.988L185.778 23.656L191.844 31H189.738Z" fill="black"></path> </svg> 