<?xml version="1.0" encoding="UTF-8"?> <svg xmlns="http://www.w3.org/2000/svg" width="240" height="49" viewBox="0 0 240 49" fill="none"> <rect width="240" height="49" rx="5" fill="#C98D4E"></rect> <path fill-rule="evenodd" clip-rule="evenodd" d="M32.8159 10.09C34.4155 10.0164 34.9255 10 39 10C43.0745 10 43.5845 10.0177 45.1827 10.09C46.7809 10.1623 47.8718 10.4173 48.8264 10.7868C49.8259 11.1645 50.7327 11.755 51.4827 12.5186C52.2464 13.2673 52.8355 14.1727 53.2118 15.1736C53.5827 16.1282 53.8364 17.2191 53.91 18.8145C53.9836 20.4168 54 20.9268 54 25C54 29.0745 53.9823 29.5845 53.91 31.1841C53.8377 32.7795 53.5827 33.8705 53.2118 34.825C52.8354 35.826 52.2454 36.733 51.4827 37.4827C50.7327 38.2464 49.8259 38.8355 48.8264 39.2118C47.8718 39.5827 46.7809 39.8364 45.1855 39.91C43.5845 39.9836 43.0745 40 39 40C34.9255 40 34.4155 39.9823 32.8159 39.91C31.2205 39.8377 30.1295 39.5827 29.175 39.2118C28.174 38.8354 27.267 38.2453 26.5173 37.4827C25.7542 36.7336 25.1636 35.8271 24.7868 34.8264C24.4173 33.8718 24.1636 32.7809 24.09 31.1855C24.0164 29.5832 24 29.0732 24 25C24 20.9255 24.0177 20.4155 24.09 18.8173C24.1623 17.2191 24.4173 16.1282 24.7868 15.1736C25.1642 14.1728 25.7552 13.2663 26.5186 12.5173C27.2673 11.7543 28.1734 11.1638 29.1736 10.7868C30.1282 10.4173 31.2191 10.1636 32.8145 10.09H32.8159ZM45.0614 12.79C43.4795 12.7177 43.005 12.7027 39 12.7027C34.995 12.7027 34.5205 12.7177 32.9386 12.79C31.4755 12.8568 30.6818 13.1009 30.1527 13.3068C29.4532 13.5795 28.9527 13.9027 28.4277 14.4277C27.9301 14.9119 27.5471 15.5013 27.3068 16.1527C27.1009 16.6818 26.8568 17.4755 26.79 18.9386C26.7177 20.5205 26.7027 20.995 26.7027 25C26.7027 29.005 26.7177 29.4795 26.79 31.0614C26.8568 32.5245 27.1009 33.3182 27.3068 33.8473C27.5468 34.4977 27.93 35.0882 28.4277 35.5723C28.9118 36.07 29.5023 36.4532 30.1527 36.6932C30.6818 36.8991 31.4755 37.1432 32.9386 37.21C34.5205 37.2823 34.9936 37.2973 39 37.2973C43.0064 37.2973 43.4795 37.2823 45.0614 37.21C46.5245 37.1432 47.3182 36.8991 47.8473 36.6932C48.5468 36.4205 49.0473 36.0973 49.5723 35.5723C50.07 35.0882 50.4532 34.4977 50.6932 33.8473C50.8991 33.3182 51.1432 32.5245 51.21 31.0614C51.2823 29.4795 51.2973 29.005 51.2973 25C51.2973 20.995 51.2823 20.5205 51.21 18.9386C51.1432 17.4755 50.8991 16.6818 50.6932 16.1527C50.4205 15.4532 50.0973 14.9527 49.5723 14.4277C49.0881 13.9301 48.4987 13.5471 47.8473 13.3068C47.3182 13.1009 46.5245 12.8568 45.0614 12.79V12.79ZM37.0841 29.6241C38.1541 30.0695 39.3455 30.1296 40.4549 29.7942C41.5643 29.4587 42.5228 28.7485 43.1667 27.7849C43.8107 26.8212 44.1001 25.6639 43.9855 24.5106C43.871 23.3573 43.3596 22.2795 42.5386 21.4614C42.0153 20.9384 41.3826 20.5379 40.6859 20.2888C39.9893 20.0397 39.246 19.9482 38.5098 20.0208C37.7735 20.0935 37.0625 20.3284 36.4279 20.7088C35.7933 21.0892 35.251 21.6056 34.84 22.2207C34.4289 22.8359 34.1593 23.5345 34.0507 24.2663C33.9421 24.9981 33.997 25.7449 34.2116 26.453C34.4263 27.161 34.7952 27.8127 35.2919 28.361C35.7886 28.9093 36.4007 29.3407 37.0841 29.6241ZM33.5482 19.5482C34.2641 18.8322 35.1141 18.2643 36.0495 17.8769C36.9849 17.4894 37.9875 17.29 39 17.29C40.0125 17.29 41.0151 17.4894 41.9505 17.8769C42.8859 18.2643 43.7359 18.8322 44.4518 19.5482C45.1678 20.2641 45.7357 21.1141 46.1231 22.0495C46.5106 22.9849 46.71 23.9875 46.71 25C46.71 26.0125 46.5106 27.0151 46.1231 27.9505C45.7357 28.8859 45.1678 29.7359 44.4518 30.4518C43.0059 31.8977 41.0448 32.71 39 32.71C36.9552 32.71 34.9941 31.8977 33.5482 30.4518C32.1023 29.0059 31.29 27.0448 31.29 25C31.29 22.9552 32.1023 20.9941 33.5482 19.5482V19.5482ZM48.42 18.4382C48.5974 18.2708 48.7394 18.0696 48.8377 17.8463C48.9359 17.6231 48.9884 17.3824 48.9919 17.1385C48.9955 16.8947 48.9501 16.6526 48.8584 16.4266C48.7667 16.2006 48.6306 15.9952 48.4581 15.8228C48.2857 15.6503 48.0804 15.5142 47.8544 15.4225C47.6283 15.3308 47.3862 15.2854 47.1424 15.289C46.8985 15.2925 46.6578 15.345 46.4346 15.4432C46.2113 15.5415 46.0101 15.6835 45.8427 15.8609C45.5172 16.2059 45.339 16.6643 45.346 17.1385C45.3529 17.6128 45.5444 18.0657 45.8798 18.4011C46.2152 18.7366 46.6681 18.928 47.1424 18.935C47.6167 18.9419 48.075 18.7637 48.42 18.4382V18.4382Z" fill="black"></path> <path d="M88.1498 32V19.4H89.9498V32H88.1498ZM93.722 32V19.4H95.198L103.532 29.75H102.758V19.4H104.558V32H103.082L94.748 21.65H95.522V32H93.722ZM112.001 32.144C111.041 32.144 110.123 32 109.247 31.712C108.371 31.412 107.681 31.028 107.177 30.56L107.843 29.156C108.323 29.576 108.935 29.924 109.679 30.2C110.423 30.476 111.197 30.614 112.001 30.614C112.733 30.614 113.327 30.53 113.783 30.362C114.239 30.194 114.575 29.966 114.791 29.678C115.007 29.378 115.115 29.042 115.115 28.67C115.115 28.238 114.971 27.89 114.683 27.626C114.407 27.362 114.041 27.152 113.585 26.996C113.141 26.828 112.649 26.684 112.109 26.564C111.569 26.444 111.023 26.306 110.471 26.15C109.931 25.982 109.433 25.772 108.977 25.52C108.533 25.268 108.173 24.932 107.897 24.512C107.621 24.08 107.483 23.528 107.483 22.856C107.483 22.208 107.651 21.614 107.987 21.074C108.335 20.522 108.863 20.084 109.571 19.76C110.291 19.424 111.203 19.256 112.307 19.256C113.039 19.256 113.765 19.352 114.485 19.544C115.205 19.736 115.829 20.012 116.357 20.372L115.763 21.812C115.223 21.452 114.653 21.194 114.053 21.038C113.453 20.87 112.871 20.786 112.307 20.786C111.599 20.786 111.017 20.876 110.561 21.056C110.105 21.236 109.769 21.476 109.553 21.776C109.349 22.076 109.247 22.412 109.247 22.784C109.247 23.228 109.385 23.582 109.661 23.846C109.949 24.11 110.315 24.32 110.759 24.476C111.215 24.632 111.713 24.776 112.253 24.908C112.793 25.028 113.333 25.166 113.873 25.322C114.425 25.478 114.923 25.682 115.367 25.934C115.823 26.186 116.189 26.522 116.465 26.942C116.741 27.362 116.879 27.902 116.879 28.562C116.879 29.198 116.705 29.792 116.357 30.344C116.009 30.884 115.469 31.322 114.737 31.658C114.017 31.982 113.105 32.144 112.001 32.144ZM121.835 32V20.966H117.515V19.4H127.937V20.966H123.617V32H121.835ZM127.357 32L133.063 19.4H134.845L140.569 32H138.679L133.585 20.408H134.305L129.211 32H127.357ZM129.787 28.85L130.273 27.41H137.365L137.887 28.85H129.787ZM147.961 32.144C146.989 32.144 146.095 31.988 145.279 31.676C144.463 31.352 143.755 30.902 143.155 30.326C142.555 29.738 142.087 29.054 141.751 28.274C141.415 27.494 141.247 26.636 141.247 25.7C141.247 24.764 141.415 23.906 141.751 23.126C142.087 22.346 142.555 21.668 143.155 21.092C143.767 20.504 144.481 20.054 145.297 19.742C146.113 19.418 147.013 19.256 147.997 19.256C148.993 19.256 149.905 19.418 150.733 19.742C151.561 20.066 152.263 20.552 152.839 21.2L151.723 22.316C151.207 21.812 150.643 21.446 150.031 21.218C149.431 20.978 148.777 20.858 148.069 20.858C147.349 20.858 146.677 20.978 146.053 21.218C145.441 21.458 144.907 21.794 144.451 22.226C144.007 22.658 143.659 23.174 143.407 23.774C143.167 24.362 143.047 25.004 143.047 25.7C143.047 26.384 143.167 27.026 143.407 27.626C143.659 28.214 144.007 28.73 144.451 29.174C144.907 29.606 145.441 29.942 146.053 30.182C146.665 30.422 147.331 30.542 148.051 30.542C148.723 30.542 149.365 30.44 149.977 30.236C150.601 30.02 151.177 29.666 151.705 29.174L152.731 30.542C152.107 31.07 151.375 31.472 150.535 31.748C149.707 32.012 148.849 32.144 147.961 32.144ZM151.003 30.308V25.628H152.731V30.542L151.003 30.308ZM156.177 32V19.4H161.091C162.195 19.4 163.137 19.574 163.917 19.922C164.697 20.27 165.297 20.774 165.717 21.434C166.137 22.094 166.347 22.88 166.347 23.792C166.347 24.704 166.137 25.49 165.717 26.15C165.297 26.798 164.697 27.296 163.917 27.644C163.137 27.992 162.195 28.166 161.091 28.166H157.167L157.977 27.338V32H156.177ZM164.601 32L161.397 27.428H163.323L166.563 32H164.601ZM157.977 27.518L157.167 26.636H161.037C162.189 26.636 163.059 26.39 163.647 25.898C164.247 25.394 164.547 24.692 164.547 23.792C164.547 22.892 164.247 22.196 163.647 21.704C163.059 21.212 162.189 20.966 161.037 20.966H157.167L157.977 20.066V27.518ZM167.347 32L173.053 19.4H174.835L180.559 32H178.669L173.575 20.408H174.295L169.201 32H167.347ZM169.777 28.85L170.263 27.41H177.355L177.877 28.85H169.777ZM182.439 32V19.4H183.915L189.567 28.922H188.775L194.355 19.4H195.831L195.849 32H194.121L194.103 22.118H194.517L189.549 30.47H188.721L183.717 22.118H184.167V32H182.439Z" fill="black"></path> </svg> 