<?xml version="1.0" encoding="UTF-8"?> <svg xmlns="http://www.w3.org/2000/svg" width="240" height="49" viewBox="0 0 240 49" fill="none"> <rect width="240" height="49" rx="5" fill="#C98D4E"></rect> <path d="M92.9198 32L88.7078 19.4H90.5618L94.4318 31.028H93.4958L97.5098 19.4H99.1658L103.09 31.028H102.19L106.114 19.4H107.824L103.612 32H101.722L98.0498 21.218H98.5358L94.8458 32H92.9198ZM119.062 19.4H120.862V32H119.062V19.4ZM111.826 32H110.026V19.4H111.826V32ZM119.224 26.384H111.646V24.818H119.224V26.384ZM122.725 32L128.431 19.4H130.213L135.937 32H134.047L128.953 20.408H129.673L124.579 32H122.725ZM125.155 28.85L125.641 27.41H132.733L133.255 28.85H125.155ZM139.686 32V20.966H135.366V19.4H145.788V20.966H141.468V32H139.686ZM151.262 32.144C150.302 32.144 149.384 32 148.508 31.712C147.632 31.412 146.942 31.028 146.438 30.56L147.104 29.156C147.584 29.576 148.196 29.924 148.94 30.2C149.684 30.476 150.458 30.614 151.262 30.614C151.994 30.614 152.588 30.53 153.044 30.362C153.5 30.194 153.836 29.966 154.052 29.678C154.268 29.378 154.376 29.042 154.376 28.67C154.376 28.238 154.232 27.89 153.944 27.626C153.668 27.362 153.302 27.152 152.846 26.996C152.402 26.828 151.91 26.684 151.37 26.564C150.83 26.444 150.284 26.306 149.732 26.15C149.192 25.982 148.694 25.772 148.238 25.52C147.794 25.268 147.434 24.932 147.158 24.512C146.882 24.08 146.744 23.528 146.744 22.856C146.744 22.208 146.912 21.614 147.248 21.074C147.596 20.522 148.124 20.084 148.832 19.76C149.552 19.424 150.464 19.256 151.568 19.256C152.3 19.256 153.026 19.352 153.746 19.544C154.466 19.736 155.09 20.012 155.618 20.372L155.024 21.812C154.484 21.452 153.914 21.194 153.314 21.038C152.714 20.87 152.132 20.786 151.568 20.786C150.86 20.786 150.278 20.876 149.822 21.056C149.366 21.236 149.03 21.476 148.814 21.776C148.61 22.076 148.508 22.412 148.508 22.784C148.508 23.228 148.646 23.582 148.922 23.846C149.21 24.11 149.576 24.32 150.02 24.476C150.476 24.632 150.974 24.776 151.514 24.908C152.054 25.028 152.594 25.166 153.134 25.322C153.686 25.478 154.184 25.682 154.628 25.934C155.084 26.186 155.45 26.522 155.726 26.942C156.002 27.362 156.14 27.902 156.14 28.562C156.14 29.198 155.966 29.792 155.618 30.344C155.27 30.884 154.73 31.322 153.998 31.658C153.278 31.982 152.366 32.144 151.262 32.144ZM156.862 32L162.568 19.4H164.35L170.074 32H168.184L163.09 20.408H163.81L158.716 32H156.862ZM159.292 28.85L159.778 27.41H166.87L167.392 28.85H159.292ZM171.953 32V19.4H176.867C177.971 19.4 178.913 19.574 179.693 19.922C180.473 20.27 181.073 20.774 181.493 21.434C181.913 22.094 182.123 22.88 182.123 23.792C182.123 24.704 181.913 25.49 181.493 26.15C181.073 26.798 180.473 27.302 179.693 27.662C178.913 28.01 177.971 28.184 176.867 28.184H172.943L173.753 27.338V32H171.953ZM173.753 27.518L172.943 26.618H176.813C177.965 26.618 178.835 26.372 179.423 25.88C180.023 25.388 180.323 24.692 180.323 23.792C180.323 22.892 180.023 22.196 179.423 21.704C178.835 21.212 177.965 20.966 176.813 20.966H172.943L173.753 20.066V27.518ZM184.768 32V19.4H189.682C190.786 19.4 191.728 19.574 192.508 19.922C193.288 20.27 193.888 20.774 194.308 21.434C194.728 22.094 194.938 22.88 194.938 23.792C194.938 24.704 194.728 25.49 194.308 26.15C193.888 26.798 193.288 27.302 192.508 27.662C191.728 28.01 190.786 28.184 189.682 28.184H185.758L186.568 27.338V32H184.768ZM186.568 27.518L185.758 26.618H189.628C190.78 26.618 191.65 26.372 192.238 25.88C192.838 25.388 193.138 24.692 193.138 23.792C193.138 22.892 192.838 22.196 192.238 21.704C191.65 21.212 190.78 20.966 189.628 20.966H185.758L186.568 20.066V27.518Z" fill="black"></path> <path d="M50.6171 14.3613C49.2356 12.9732 47.5903 11.8727 45.7772 11.124C43.9641 10.3752 42.0194 9.99317 40.0565 10.0001C31.8314 10.0001 25.1281 16.6713 25.1205 24.8613C25.1205 27.4845 25.8099 30.0363 27.1114 32.2957L25 40.0001L32.9181 37.9338C35.1086 39.1206 37.5626 39.7426 40.0565 39.7432H40.064C48.2911 39.7432 54.9925 33.072 55 24.8745C55.0019 22.9208 54.6154 20.9861 53.8629 19.1817C53.1103 17.3774 52.0066 15.7392 50.6153 14.3613H50.6171ZM40.0565 37.227C37.8321 37.2277 35.6486 36.6318 33.7356 35.502L33.2835 35.232L28.5861 36.4582L29.8405 31.8963L29.5467 31.4257C28.3033 29.4576 27.6456 27.1789 27.65 24.8538C27.65 18.0551 33.2195 12.5088 40.064 12.5088C41.6946 12.5059 43.3097 12.8244 44.8161 13.4458C46.3225 14.0672 47.6904 14.9793 48.841 16.1295C49.9957 17.2752 50.911 18.6371 51.5343 20.1368C52.1575 21.6364 52.4763 23.2441 52.4724 24.867C52.4648 31.6901 46.8954 37.227 40.0565 37.227V37.227ZM46.8653 27.9757C46.4942 27.7901 44.6616 26.892 44.3169 26.7645C43.9741 26.6426 43.7236 26.5788 43.4788 26.9501C43.2283 27.3195 42.5126 28.1613 42.2978 28.4032C42.0831 28.6526 41.8609 28.6807 41.4879 28.497C41.1169 28.3095 39.9134 27.9195 38.4894 26.6501C37.3782 25.6657 36.6342 24.447 36.412 24.0776C36.1973 23.7063 36.3913 23.5076 36.5777 23.322C36.7416 23.157 36.9488 22.887 37.1352 22.6732C37.3236 22.4595 37.3857 22.302 37.5082 22.0545C37.6306 21.8032 37.5722 21.5895 37.4799 21.4038C37.3857 21.2182 36.6418 19.3863 36.3272 18.6476C36.0259 17.9182 35.7189 18.0195 35.4891 18.0101C35.2744 17.997 35.0239 17.997 34.7734 17.997C34.5842 18.0016 34.398 18.0452 34.2266 18.1249C34.0551 18.2046 33.902 18.3187 33.777 18.4601C33.4342 18.8313 32.4755 19.7295 32.4755 21.5613C32.4755 23.3932 33.8128 25.1538 34.0011 25.4032C34.1857 25.6526 36.6267 29.4007 40.3729 31.0132C41.2582 31.3976 41.955 31.6245 42.4994 31.797C43.394 32.082 44.202 32.0388 44.8462 31.947C45.5619 31.8382 47.0517 31.047 47.3663 30.1788C47.6752 29.3088 47.6752 28.5663 47.581 28.4107C47.4887 28.2532 47.2382 28.1613 46.8653 27.9757V27.9757Z" fill="black"></path> </svg> 